# xmcd CD database file
# Copyright (C) 1993-1998 Ti Kan
# 
# Track frame offsets:
#     183
#     15870
#     34940
#     52033
#     70998
#     89610
#     119403
#     142613
#     163178
#     191140
#     212933
#     225683
#     249693
#     268808
#     286473
# 
# Disc length: 4158 seconds
# 
# Revision: 1
# Processed by: cddbd v1.4b41PL1 Copyright (c) Steve Scherf et al.
# Submitted via: DiscPlay 4.0.4
# 
DISCID=e3103c0f
DTITLE=Various Artist - Chicago BLUES Session
DYEAR=1900
DGENRE=
TTITLE0=I had it so hard - Sunnyland Slim and Lacy Gibso
TTITLE1=You went away baby - Carey Bell and Willie Williams
TTITLE2=Bessie Mae - Sunnyland Slim and Lacy Gibson
TTITLE3=In the dark - Magic Slim
TTITLE4=Pretty Baby - Jimmy Johnson
TTITLE5=Came up the hard way - Eddie Clearwater
TTITLE6=Cummins prison farm - Magic Slim
TTITLE7=Alcoholic man - Carey Bell and Willie Williams
TTITLE8=Muddy Water s goin to run clear - Eddie Clearwater
TTITLE9=I Don t know why - Eddie Clearwater
TTITLE10=Boogie my Blues away - Eddie Clearwater
TTITLE11=When my first wife quit me - Jimmy Johnson
TTITLE12=Soft and mellow Stella - Sunnyland Slim and Lacy Gibson
TTITLE13=Showing off my car - Carey Bell and Willie Williams
TTITLE14=Mayor Daley s Blues - Eddie Clearwater
EXTD=
EXTT0=
EXTT1=
EXTT2=
EXTT3=
EXTT4=
EXTT5=
EXTT6=
EXTT7=
EXTT8=
EXTT9=
EXTT10=
EXTT11=
EXTT12=
EXTT13=
EXTT14=
PLAYORDER=
